<?xml version="1.0" standalone="no"?>
<!DOCTYPE svg PUBLIC "-//W3C//DTD SVG 20010904//EN"
 "http://www.w3.org/TR/2001/REC-SVG-20010904/DTD/svg10.dtd">
<svg version="1.0" xmlns="http://www.w3.org/2000/svg"
 width="683.000000pt" height="700.000000pt" viewBox="0 0 683.000000 700.000000"
 preserveAspectRatio="xMidYMid meet">

<g transform="translate(0.000000,700.000000) scale(0.100000,-0.100000)"
fill="#000000" stroke="none">
<path d="M303 6985 c-108 -29 -187 -88 -240 -176 -66 -110 -63 -59 -63 -1282
0 -883 3 -1108 13 -1104 6 2 11 10 9 16 -1 6 18 20 43 31 40 17 50 28 46 53 0
4 7 7 18 7 23 0 111 48 111 61 0 5 8 9 18 9 9 0 29 11 43 24 14 13 35 27 47
30 12 4 22 12 22 17 0 5 7 9 16 9 9 0 29 11 46 25 16 14 38 25 48 25 9 0 23 7
30 15 8 9 21 13 34 10 12 -4 16 -3 9 2 -17 12 10 45 31 37 21 -8 49 15 41 34
-7 20 12 32 53 32 19 0 42 9 54 20 17 16 18 20 6 20 -9 0 -21 7 -28 15 -7 9
-19 14 -27 11 -8 -3 -11 -1 -8 4 3 6 0 10 -7 10 -8 1 -6 6 6 15 41 31 157 10
125 -22 -6 -6 11 -1 38 12 27 13 64 40 82 60 26 29 36 34 43 24 6 -10 7 -7 3
10 -7 22 -6 23 34 16 27 -4 41 -3 41 4 0 6 -5 11 -11 11 -22 0 3 19 34 26 17
4 26 9 19 11 -6 3 -10 9 -6 14 3 5 -3 8 -13 7 -19 -2 -100 32 -228 98 -70 35
-83 46 -107 89 -23 43 -25 51 -12 58 12 7 14 18 9 47 l-6 37 43 -2 c24 -2 49
2 55 7 28 23 50 -7 30 -39 -14 -22 4 -35 39 -30 19 3 36 1 39 -4 4 -5 15 -9
26 -9 12 0 19 -5 16 -12 -2 -7 -9 -12 -15 -11 -17 4 -24 -31 -13 -61 6 -14 18
-26 28 -27 12 -1 9 -3 -7 -8 l-25 -7 25 -14 c14 -7 32 -21 41 -32 17 -18 31
-24 27 -10 -5 12 10 14 43 7 17 -4 35 -3 41 3 7 7 24 4 53 -8 34 -14 59 -17
117 -14 40 3 75 10 76 15 5 12 28 11 50 -2 14 -9 27 -5 64 17 49 31 63 56 47
85 -14 28 -11 39 12 39 14 0 19 5 16 14 -5 13 8 18 80 28 15 2 26 28 13 28 -6
0 -10 7 -10 16 0 8 -4 12 -10 9 -5 -3 -10 -1 -10 4 0 6 5 11 10 11 21 0 8 19
-20 29 -16 5 -30 14 -30 18 0 5 -16 15 -35 21 -25 10 -32 17 -28 29 6 14 8 14
11 2 11 -33 66 -40 89 -11 14 16 14 16 10 -4 -6 -28 28 -51 49 -33 11 9 14 7
14 -9 0 -15 5 -20 15 -16 9 4 15 0 15 -10 0 -8 6 -13 13 -11 8 3 13 -6 14 -26
1 -17 7 -37 14 -45 6 -7 8 -18 4 -24 -11 -17 5 -11 51 21 43 29 74 80 74 119
0 22 -62 99 -99 122 -45 28 -232 89 -321 103 -89 15 -244 31 -270 28 -8 -1
-18 3 -21 9 -5 7 -23 7 -60 0 -30 -6 -89 -17 -131 -26 -144 -27 -269 -76 -321
-125 -41 -37 -70 -98 -62 -130 4 -19 3 -22 -5 -11 -15 23 -12 57 9 98 22 42
180 202 243 245 94 64 272 126 325 112 16 -4 22 -2 18 5 -3 5 -2 10 4 10 5 0
11 -6 14 -12 3 -10 9 -10 23 -2 27 15 176 -8 254 -40 35 -14 65 -24 68 -22 2
3 9 1 16 -4 87 -72 163 -136 217 -187 36 -35 71 -63 78 -63 7 0 9 -5 5 -12 -4
-6 -3 -8 4 -4 6 3 13 2 17 -4 4 -6 10 -8 14 -6 4 3 7 -10 7 -27 -1 -27 2 -31
19 -28 11 2 32 4 48 5 15 0 27 4 27 7 0 4 11 10 25 13 14 4 23 11 20 16 -3 5
7 9 22 8 64 -2 119 5 140 18 29 18 47 18 39 -1 -8 -22 2 -18 14 5 6 11 7 19 3
18 -4 -2 -9 0 -10 5 -7 18 -2 19 17 2 18 -16 20 -16 26 -1 3 9 10 16 15 16 6
0 20 9 32 21 45 42 135 105 254 179 46 29 109 80 145 117 175 186 238 232 383
280 71 24 96 27 220 27 153 1 206 -10 320 -65 97 -48 170 -112 235 -208 32
-47 70 -98 84 -113 33 -34 142 -118 154 -118 5 0 17 -9 27 -20 10 -12 25 -18
32 -16 7 3 13 -1 13 -8 0 -7 10 -21 23 -32 l22 -19 -20 25 -20 24 30 -18 c33
-21 65 -51 66 -63 0 -5 2 -10 4 -12 2 -2 2 9 -1 23 -4 24 -2 26 14 17 11 -6
22 -8 24 -5 3 3 8 -7 10 -21 5 -22 2 -25 -16 -20 -11 2 -15 2 -8 -1 6 -3 9
-10 6 -16 -4 -6 3 -5 15 1 12 7 25 10 29 7 4 -2 8 5 9 17 0 12 -1 16 -4 10 -7
-18 -23 -16 -23 2 0 9 7 18 16 22 13 5 13 7 2 14 -10 7 -10 9 0 9 7 0 15 -7
18 -15 9 -22 81 -20 87 3 4 13 5 11 6 -5 1 -28 17 -30 24 -3 4 14 10 18 22 14
14 -6 16 -4 7 12 -6 11 -7 39 -2 67 6 39 15 56 56 95 112 108 184 141 312 142
118 2 230 -37 311 -107 63 -54 101 -140 69 -159 -7 -5 -9 -2 -6 8 17 44 -84
161 -173 200 -74 32 -246 7 -380 -56 -41 -18 -91 -41 -111 -49 -34 -14 -38
-20 -38 -50 0 -27 8 -42 35 -66 20 -17 42 -31 49 -31 15 0 40 27 51 55 5 13 9
15 12 7 3 -6 8 -10 12 -8 4 3 13 -5 21 -17 12 -20 11 -21 -2 -9 -13 10 -20 7
-42 -23 -26 -34 -26 -35 -7 -47 16 -10 18 -15 8 -27 -8 -10 -8 -13 -1 -8 7 4
14 0 18 -8 3 -8 17 -15 30 -15 20 0 27 7 32 28 10 42 14 45 37 20 27 -28 68
-58 81 -58 5 0 -2 12 -17 28 -14 15 -26 36 -26 47 1 11 -2 36 -6 57 -9 46 8
57 111 69 60 8 79 15 106 39 35 32 43 35 52 21 3 -5 14 -7 25 -4 13 3 27 -6
47 -33 25 -32 29 -47 29 -98 0 -52 -5 -70 -37 -122 -28 -48 -33 -65 -25 -74 9
-10 8 -12 -5 -7 -10 4 -17 3 -17 -1 3 -19 -2 -25 -11 -12 -8 12 -10 11 -10 -7
0 -16 11 -26 40 -39 22 -10 40 -21 40 -26 0 -4 5 -8 11 -8 6 0 9 7 6 14 -4 10
-1 13 9 9 7 -3 14 -9 14 -14 0 -5 9 -9 19 -9 11 0 26 -9 34 -21 9 -13 17 -16
22 -10 3 6 1 11 -6 11 -7 0 -10 2 -7 5 11 11 38 -8 38 -27 0 -10 4 -17 10 -13
5 3 6 13 3 23 -6 16 -6 16 11 0 21 -22 37 -23 30 -3 -4 8 -11 15 -17 15 -6 0
-7 3 -4 7 4 3 15 -2 26 -11 12 -11 21 -14 26 -7 3 6 27 10 53 10 39 -1 42 -2
17 -8 -17 -3 -35 -16 -42 -31 -7 -14 -13 -20 -13 -13 0 7 -11 1 -25 -12 -13
-14 -29 -25 -35 -25 -5 0 -10 -5 -10 -10 0 -7 6 -7 18 -1 31 17 119 24 151 13
25 -9 31 -8 31 3 0 7 -9 16 -19 20 -10 3 -21 15 -24 25 -5 20 -4 20 25 3 27
-16 29 -22 25 -58 -4 -36 -2 -40 18 -41 13 -1 32 -11 42 -21 13 -13 32 -19 51
-18 17 1 31 -1 30 -4 -1 -15 15 -51 23 -51 5 0 6 8 3 18 -5 15 -4 15 8 2 8 -9
29 -15 53 -14 22 1 47 -2 55 -6 19 -10 86 -22 123 -22 18 -1 24 -4 16 -8 -8
-5 7 -18 42 -36 30 -15 57 -27 61 -26 5 1 7 -3 5 -10 -1 -7 4 -12 10 -13 7 0
29 -15 48 -32 20 -18 40 -33 46 -33 6 0 8 -3 6 -7 -2 -5 4 -16 15 -25 20 -20
23 -16 8 13 -9 16 -7 19 13 19 15 0 29 -9 37 -25 7 -14 19 -25 26 -25 6 0 15
-7 18 -16 3 -9 13 -14 20 -11 8 3 20 -1 26 -8 10 -12 9 -16 -3 -21 -9 -3 -18
-12 -21 -20 -7 -18 -1 -18 18 2 14 14 19 12 53 -14 21 -17 55 -35 76 -42 25
-8 37 -17 37 -30 0 -13 5 -17 15 -13 9 3 23 -1 33 -8 21 -18 56 -37 107 -62
22 -11 48 -28 58 -38 10 -11 27 -19 37 -19 20 0 20 13 20 1003 0 718 -3 1020
-12 1061 -24 121 -124 239 -245 287 l-58 24 -3080 2 c-2631 1 -3088 0 -3132
-12z m2083 -520 c95 -49 160 -99 180 -136 8 -17 18 -64 21 -105 6 -81 13 -68
-89 -161 -35 -31 -38 -31 -125 -29 -81 1 -95 4 -130 29 -22 15 -51 39 -63 52
-13 14 -29 25 -37 25 -7 0 -13 8 -13 17 0 13 3 14 12 5 7 -7 22 -12 35 -12 12
0 27 -8 32 -17 8 -13 13 -15 18 -6 5 7 40 13 83 15 l75 3 -3 -26 c-2 -20 5
-29 33 -42 19 -9 35 -21 35 -27 0 -5 5 -10 11 -10 5 0 8 4 5 9 -4 5 0 11 6 14
9 3 7 9 -6 19 -21 16 -7 35 17 23 6 -4 2 2 -10 13 -35 31 -31 52 6 32 14 -7
22 -3 39 20 25 34 28 44 9 37 -10 -4 -13 2 -9 19 4 20 1 23 -13 17 -14 -5 -16
-3 -10 8 5 8 17 20 27 27 42 31 11 80 -99 152 -41 27 -91 52 -111 55 -64 11
-68 13 -31 14 24 1 60 -11 105 -34z m-142 -39 c-10 -8 -21 -12 -24 -10 -5 6
21 24 34 24 6 0 1 -6 -10 -14z m-63 -34 c-30 -24 -35 -36 -39 -84 -3 -44 -7
-55 -19 -51 -29 11 6 117 49 147 38 27 44 18 9 -12z m2286 -91 c44 -20 114
-84 133 -123 11 -20 8 -19 -21 8 -47 42 -134 104 -148 104 -6 0 -11 4 -11 10
0 19 -50 -9 -89 -50 -21 -22 -33 -40 -28 -40 15 0 2 -11 -16 -14 -8 -1 -31
-14 -51 -30 -21 -15 -40 -26 -43 -23 -8 9 32 69 74 108 74 71 125 83 200 50z
m-497 -93 c0 -17 -32 -21 -46 -6 -13 13 -11 15 16 15 16 0 30 -4 30 -9z m-60
-18 c0 -5 -5 -10 -11 -10 -5 0 -7 5 -4 10 3 6 8 10 11 10 2 0 4 -4 4 -10z
m637 -41 c32 -17 30 -53 -6 -78 -44 -32 -112 -61 -143 -61 -38 0 -128 35 -160
63 -26 23 -27 25 -10 39 31 28 80 48 68 29 -4 -5 4 -7 16 -3 22 5 22 4 6 -15
-17 -19 -17 -20 17 -36 40 -19 63 -21 97 -8 32 12 43 12 44 1 3 -23 5 -24 19
-6 19 25 19 66 1 66 -8 0 -16 6 -19 14 -6 16 35 13 70 -5z m-2410 -184 c27
-19 54 -71 46 -91 -8 -21 -41 -36 -64 -29 -11 4 -25 2 -32 -3 -8 -6 -27 -3
-57 11 -43 20 -44 21 -17 25 15 2 27 8 27 13 0 5 9 9 20 9 11 0 20 4 20 9 0 5
9 7 20 4 15 -4 20 0 20 16 0 27 -36 42 -69 29 -21 -7 -22 -7 -11 7 16 19 69
19 97 0z m-557 -69 c0 -3 -4 -8 -10 -11 -5 -3 -10 -1 -10 4 0 6 5 11 10 11 6
0 10 -2 10 -4z m620 -114 c0 -4 -5 -13 -11 -19 -12 -12 -59 -5 -59 9 0 5 9 6
20 3 11 -4 20 -2 20 4 0 6 7 11 15 11 8 0 15 -4 15 -8z m-270 -46 c0 -2 -11
-6 -25 -8 -14 -3 -25 -1 -25 3 0 5 11 9 25 9 14 0 25 -2 25 -4z m30 -31 c0 -9
-10 -16 -22 -16 -13 -1 -34 -2 -47 -3 -45 -2 -35 23 11 27 24 2 46 4 51 5 4 1
7 -5 7 -13z m-957 -32 c-4 -10 -9 -11 -19 -2 -19 15 -18 18 5 16 11 -1 17 -6
14 -14z m227 13 c0 -3 -4 -8 -10 -11 -5 -3 -10 -1 -10 4 0 6 5 11 10 11 6 0
10 -2 10 -4z m320 -23 c0 -5 -9 -19 -20 -33 -16 -22 -18 -22 -15 -5 2 11 4 26
4 33 1 13 31 18 31 5z m363 -22 c4 -4 0 -16 -8 -27 -12 -16 -14 -16 -9 -2 5
15 1 17 -25 14 -17 -2 -28 1 -25 5 3 5 -2 9 -10 9 -8 0 -17 4 -20 9 -6 10 85
2 97 -8z m-757 -58 c-10 -10 -19 5 -10 18 6 11 8 11 12 0 2 -7 1 -15 -2 -18z
m284 -13 c0 -11 -7 -20 -15 -20 -13 0 -13 3 -3 20 7 11 14 20 15 20 2 0 3 -9
3 -20z m-443 -12 c-3 -8 -6 -5 -6 6 -1 11 2 17 5 13 3 -3 4 -12 1 -19z m-67
-21 c0 -5 -4 -5 -10 -2 -5 3 -10 14 -10 23 0 15 2 15 10 2 5 -8 10 -19 10 -23z
m-62 -21 c-2 -1 -10 -7 -19 -14 -14 -11 -17 -9 -21 12 -4 22 -3 23 19 13 13
-5 22 -11 21 -11z m-71 -31 c9 -25 -4 -29 -17 -6 -7 15 -7 21 0 21 6 0 13 -7
17 -15z m5581 -364 c3 -8 0 -11 -7 -7 -11 7 -71 -23 -71 -36 0 -12 104 4 115
18 8 9 16 8 37 -5 29 -18 26 -31 -9 -50 -13 -6 -23 -19 -23 -27 0 -11 -6 -14
-16 -10 -8 3 -13 2 -10 -3 7 -11 -42 -44 -54 -36 -6 3 -10 13 -10 21 0 17 -14
18 -40 2 -18 -11 -24 -9 -51 20 -16 17 -25 32 -19 32 12 0 40 24 40 34 0 10
50 55 67 59 28 8 46 3 51 -12z m-5338 -18 c-8 -3 -24 -10 -35 -15 -20 -9 -20
-9 -1 6 11 9 27 16 35 15 14 0 14 -1 1 -6z m-63 -19 c-3 -3 -12 -4 -19 -1 -8
3 -5 6 6 6 11 1 17 -2 13 -5z m5233 -84 c0 -5 -2 -10 -4 -10 -3 0 -8 5 -11 10
-3 6 -1 10 4 10 6 0 11 -4 11 -10z"/>
<path d="M2284 6109 c-3 -6 0 -18 9 -26 19 -19 59 -1 51 22 -7 17 -50 20 -60
4z"/>
<path d="M5108 5715 c-8 -19 -12 -35 -8 -35 13 0 40 36 40 53 0 28 -15 19 -32
-18z"/>
<path d="M5035 5590 c-39 -26 -25 -26 17 0 18 11 29 20 23 20 -5 0 -23 -9 -40
-20z"/>
<path d="M5090 5585 c-26 -28 -25 -35 3 -35 26 0 99 49 76 51 -8 1 -24 3 -36
4 -12 1 -31 -8 -43 -20z"/>
<path d="M4370 5586 c0 -2 7 -7 16 -10 8 -3 12 -2 9 4 -6 10 -25 14 -25 6z"/>
<path d="M2177 5546 c-4 -10 -1 -13 8 -9 8 3 12 9 9 14 -7 12 -11 11 -17 -5z"/>
<path d="M4840 5510 c0 -5 6 -10 14 -10 8 0 18 5 21 10 3 6 -3 10 -14 10 -12
0 -21 -4 -21 -10z"/>
<path d="M3490 5310 c-14 -4 -44 -8 -68 -9 -24 -1 -41 -4 -39 -8 3 -5 -23 -7
-56 -6 l-62 2 38 -16 c50 -21 47 -31 -11 -25 -36 3 -51 0 -61 -12 -7 -9 -23
-16 -36 -16 -30 0 -85 -20 -85 -31 0 -5 -6 -9 -12 -9 -7 0 -35 -11 -63 -25
-27 -14 -39 -22 -25 -19 18 4 21 3 11 -4 -7 -5 -31 -7 -53 -4 -22 3 -43 0 -47
-5 -3 -5 -15 -15 -26 -21 -18 -10 -18 -11 -2 -12 24 0 14 -16 -56 -89 -31 -33
-57 -65 -57 -71 0 -6 39 23 87 64 48 42 89 73 92 70 3 -2 -33 -41 -80 -85 -46
-44 -78 -77 -71 -74 22 11 13 -9 -15 -32 -27 -21 -27 -22 -4 -16 33 8 20 -11
-19 -27 -16 -7 -30 -16 -30 -21 0 -5 -14 -16 -31 -24 -19 -11 -29 -22 -25 -31
3 -8 1 -14 -5 -14 -6 0 -9 -6 -6 -14 3 -7 0 -19 -6 -25 -9 -9 -4 -19 21 -39
28 -24 32 -33 33 -77 l1 -50 10 35 c17 62 23 51 19 -38 -3 -83 -4 -85 -16 -52
l-12 35 -7 -46 c-4 -26 -13 -55 -21 -65 -25 -33 -18 -50 10 -24 40 38 32 -2
-10 -49 -19 -21 -35 -43 -35 -48 0 -6 -7 -16 -16 -24 -13 -11 -12 -14 13 -25
27 -12 28 -12 4 -13 l-24 -1 23 -25 c13 -14 46 -34 74 -44 28 -11 43 -20 33
-20 -34 -1 -6 -21 29 -21 40 0 45 -16 9 -32 -32 -14 -32 -24 1 -32 21 -6 24
-9 14 -21 -10 -12 -9 -15 4 -15 8 0 23 -12 33 -26 14 -22 22 -25 52 -21 20 3
43 8 51 11 9 4 35 -13 68 -44 59 -56 65 -82 31 -136 -23 -38 -33 -40 -103 -19
-66 20 -66 20 -66 -17 0 -53 -10 -80 -25 -68 -9 8 -26 -4 -64 -46 -29 -31 -58
-69 -66 -84 -19 -36 -34 -162 -27 -228 7 -73 -11 -112 -52 -112 -33 -1 -138
-24 -155 -35 -6 -3 -11 -17 -11 -31 0 -19 7 -28 30 -35 45 -16 37 -31 -13 -24
-34 5 -48 3 -60 -10 -30 -29 -21 -44 21 -38 40 6 39 3 -20 -41 -29 -20 -38
-34 -38 -56 0 -45 18 -45 30 0 6 22 20 44 30 50 25 13 26 3 3 -23 -17 -19 -17
-20 0 -14 22 8 22 -2 -2 -27 -18 -20 -25 -42 -22 -76 1 -10 6 -8 17 8 9 13 26
22 41 22 25 0 26 0 8 -20 -15 -17 -16 -20 -3 -20 33 0 28 -31 -12 -69 -32 -30
-40 -45 -40 -74 0 -20 5 -39 10 -42 6 -3 10 1 10 10 0 24 64 85 89 85 28 0 28
-31 -1 -56 -34 -31 -78 -106 -77 -133 0 -23 3 -20 19 15 17 40 36 61 46 52 2
-3 -4 -25 -15 -49 -11 -24 -22 -61 -26 -81 -6 -32 -3 -41 19 -63 24 -24 32
-26 69 -20 72 12 109 36 136 87 l26 48 -50 46 c-49 44 -46 49 7 12 30 -21 58
-24 58 -5 -1 27 -40 96 -63 112 -22 14 -25 22 -20 53 9 55 19 69 58 76 35 7
49 25 69 89 6 20 26 23 26 3 0 -7 -16 -60 -35 -116 -25 -77 -32 -108 -24 -121
5 -11 13 -19 17 -19 19 0 42 -74 42 -136 0 -36 5 -74 10 -85 14 -25 26 -179
14 -179 -5 0 -10 -12 -10 -27 -1 -16 -5 -47 -9 -70 -5 -30 -4 -48 6 -59 11
-13 10 -17 -4 -25 -28 -16 -19 -46 23 -80 23 -19 40 -41 40 -53 0 -11 -22 -40
-51 -67 -54 -50 -57 -63 -22 -117 8 -13 12 -30 9 -39 -3 -8 1 -21 9 -29 8 -9
15 -28 15 -44 0 -16 5 -32 10 -35 6 -3 10 -26 10 -50 0 -42 -1 -44 -32 -47
-30 -3 -33 -6 -34 -39 -1 -68 -27 -75 -151 -43 -84 22 -149 15 -210 -24 -26
-17 -61 -34 -76 -38 -19 -4 -26 -11 -23 -20 4 -11 1 -12 -14 -4 -25 13 -30 13
-30 -5 0 -30 -15 -14 -30 33 -15 46 -16 47 -60 52 -33 4 -46 10 -48 23 -2 10
3 17 13 17 9 0 13 5 10 10 -4 6 -12 10 -18 9 -24 -3 -38 1 -33 10 12 19 -21
32 -60 23 -22 -5 -49 -8 -61 -7 -13 1 -23 -2 -23 -7 0 -5 -8 -8 -18 -7 -29 2
-43 -1 -38 -9 2 -4 -14 -16 -36 -27 -22 -10 -51 -33 -65 -49 -16 -20 -28 -26
-30 -18 -3 6 -10 12 -18 12 -15 0 -62 -68 -71 -105 -3 -14 -9 -25 -13 -23 -4
2 -30 12 -59 23 -56 20 -128 75 -100 75 8 0 26 -8 39 -18 24 -18 53 -33 76
-38 17 -3 10 35 -8 47 -11 7 -9 9 9 9 12 0 22 -5 22 -12 0 -7 16 3 35 22 34
33 48 59 23 44 -7 -4 -8 -3 -4 4 4 6 13 9 20 6 13 -5 33 13 24 22 -3 2 -40 13
-84 24 -43 11 -83 26 -89 33 -5 6 -19 13 -30 15 -18 2 -18 1 4 -18 l23 -20
-24 0 c-46 0 -138 23 -132 32 4 6 17 8 30 5 13 -2 21 0 18 4 -3 5 -12 9 -19 9
-8 0 -12 6 -9 14 6 16 -32 46 -57 46 -19 0 -59 33 -59 48 0 6 -7 15 -16 20
-19 11 -56 4 -49 -8 3 -5 -3 -6 -14 -3 -26 7 -36 -14 -20 -44 18 -34 2 -42
-86 -44 -156 -3 -182 -1 -314 32 -77 19 -89 24 -86 41 5 26 -4 48 -21 48 -8 0
-14 7 -14 15 0 20 -54 20 -74 -1 -21 -21 -21 -21 16 -44 41 -25 33 -25 -67 0
-90 22 -115 24 -115 10 0 -22 70 -106 102 -122 56 -28 181 -77 213 -82 85 -13
170 -44 376 -132 20 -9 58 -38 85 -65 53 -54 69 -61 58 -27 -6 21 -6 22 12 8
10 -8 25 -22 32 -30 12 -13 13 -12 7 5 -21 60 -22 58 30 53 66 -8 89 -33 90
-99 0 -33 -5 -54 -12 -56 -8 -3 -13 5 -14 19 l0 23 -11 -22 c-9 -18 -20 -23
-48 -23 -21 0 -52 -3 -69 -6 -27 -6 -31 -4 -31 15 0 25 -18 28 -26 4 -3 -10
-10 -26 -15 -35 -5 -10 -9 -25 -9 -33 0 -10 -10 -15 -34 -15 -18 0 -55 -2 -82
-6 l-49 -5 35 20 c19 11 43 20 53 21 27 0 11 18 -24 25 -21 5 -34 3 -39 -6 -6
-9 -18 -2 -42 24 -41 43 -122 81 -156 72 -12 -3 -21 -9 -18 -14 3 -4 -11 -14
-30 -21 -43 -17 -68 -44 -60 -65 3 -8 22 -25 42 -37 44 -26 34 -34 -56 -43
-111 -11 -110 -24 7 -84 58 -30 66 -32 131 -25 l70 6 58 -53 c33 -30 85 -76
117 -103 60 -51 137 -156 137 -187 0 -28 16 -23 41 12 l22 32 23 -27 c13 -14
27 -26 31 -26 5 0 47 38 93 85 98 98 91 97 221 39 41 -18 97 -38 125 -44 58
-13 93 -41 167 -132 l54 -67 27 49 c15 28 38 63 51 79 27 32 24 41 -14 41 -23
1 -24 2 -8 11 10 6 28 8 39 6 13 -4 17 -2 11 4 -5 5 -35 16 -67 24 -32 9 -66
20 -75 26 -13 9 -13 9 4 4 20 -6 60 -14 185 -35 36 -6 99 -23 141 -37 l76 -26
12 -59 c6 -32 15 -58 19 -58 5 0 18 20 30 45 21 43 24 45 66 45 24 0 63 7 86
15 71 25 98 20 142 -25 l38 -41 25 26 c33 32 56 32 94 -1 l31 -26 27 31 c46
52 85 36 131 -54 l21 -40 1 35 c1 32 4 28 37 -48 20 -45 41 -81 46 -79 5 1 35
47 66 101 64 111 110 170 154 197 l31 18 -28 11 c-15 5 -32 10 -38 10 -6 0 -9
3 -5 6 9 9 207 -28 201 -38 -3 -4 2 -5 10 -2 15 6 137 -49 189 -84 15 -10 64
-52 108 -92 l81 -73 27 34 c16 19 78 80 140 137 l111 104 35 -12 c35 -12 44
-23 25 -35 -6 -3 -10 -11 -10 -16 0 -6 6 -7 13 -2 6 4 17 8 22 10 6 1 19 5 30
8 23 7 144 -67 215 -131 l41 -37 48 47 c42 42 51 46 69 37 29 -16 28 -16 68
44 20 30 43 55 50 55 7 0 24 -33 37 -72 l25 -73 1 77 c1 42 5 80 11 83 5 3 21
-5 34 -20 18 -19 25 -22 29 -12 3 8 17 17 31 19 l26 5 1 -91 c0 -109 13 -91
27 40 9 80 13 89 46 122 21 22 55 42 87 51 55 17 82 42 63 61 -6 6 -55 16
-109 23 -81 9 -99 14 -103 29 -4 18 -5 18 -24 1 -24 -21 -21 -21 -41 -5 -9 8
-21 11 -26 8 -15 -10 -57 41 -76 91 -16 40 -16 47 -1 76 9 20 16 25 16 15 0
-10 10 -28 23 -40 12 -13 27 -38 33 -58 9 -25 12 -29 13 -14 1 27 55 156 86
204 35 56 111 117 173 140 66 25 71 21 73 -60 0 -30 4 -66 8 -80 6 -19 10 -9
15 45 8 79 14 103 15 63 1 -15 6 -30 12 -33 7 -5 10 11 8 48 -2 52 0 58 33 91
20 20 41 36 47 36 6 0 15 9 21 20 6 11 18 20 26 20 13 0 15 -6 9 -28 l-7 -27
25 23 c16 15 23 30 20 45 -4 21 1 24 72 36 42 7 92 19 112 27 19 8 37 14 38
12 3 -3 8 -295 6 -346 -1 -20 -4 -21 -21 -12 -11 6 -20 15 -20 21 0 6 -7 17
-15 25 -8 8 -11 22 -8 31 6 15 5 15 -16 1 -15 -11 -35 -15 -57 -11 -28 5 -38
1 -62 -25 -28 -30 -72 -128 -72 -160 0 -10 -16 -30 -35 -45 -48 -39 -45 -58
15 -88 52 -25 67 -45 26 -35 -29 7 -43 -9 -25 -30 9 -11 9 -20 0 -40 -6 -14
-11 -27 -11 -30 0 -11 76 9 90 25 40 44 74 59 125 54 62 -6 81 9 65 51 -5 15
-10 38 -10 51 0 13 -7 30 -15 39 -8 8 -15 23 -15 34 0 30 30 95 54 117 27 25
42 109 52 290 6 102 10 122 26 133 10 8 33 39 51 70 l32 57 2 -40 c9 -146 16
-206 23 -199 5 5 13 67 17 139 l8 130 45 22 c59 29 76 28 96 -2 9 -14 21 -25
28 -25 6 0 20 30 30 68 24 84 47 130 81 162 35 33 98 137 90 150 -3 5 -19 10
-35 10 -22 0 -30 5 -33 23 l-4 22 -2 -22 c-1 -15 -9 -25 -23 -28 -29 -6 -323
-23 -363 -20 -16 1 -65 3 -107 4 l-78 1 0 40 c0 22 4 48 9 58 5 9 14 35 19 57
6 22 20 74 32 115 12 41 24 86 27 100 7 34 61 149 86 184 l20 29 22 -25 c22
-26 43 -106 111 -410 15 -71 31 -128 36 -128 8 0 1 50 -12 90 -5 14 -19 66
-30 115 -68 292 -76 391 -38 470 18 37 24 42 30 28 5 -14 7 -12 7 10 1 36 47
105 84 123 16 9 31 13 35 10 6 -7 5 -64 -4 -131 -9 -73 2 -52 14 25 8 50 20
81 51 128 23 34 49 62 57 62 9 0 34 16 57 35 22 19 44 35 49 35 4 0 5 19 2 43
-9 62 13 98 100 162 70 51 140 136 100 121 -12 -5 -15 -2 -9 11 3 10 7 22 8
27 2 10 -88 41 -146 51 -21 3 -35 10 -32 15 3 5 12 7 19 4 8 -3 17 -1 21 5 13
22 -26 23 -44 2 -19 -22 -51 -29 -51 -11 0 16 -71 12 -84 -4 -6 -8 -22 -18
-36 -21 -21 -5 -27 -1 -39 25 -7 17 -12 32 -10 34 2 1 30 8 62 15 60 13 64 18
44 64 -8 20 -25 33 -52 43 -64 22 -92 18 -126 -18 -17 -19 -28 -25 -25 -16 3
10 1 20 -3 23 -11 6 -34 -22 -27 -33 3 -5 -3 -17 -13 -26 -23 -21 -32 -9 -27
35 6 47 -21 164 -51 222 -27 52 -26 69 1 41 9 -9 19 -14 22 -12 2 3 -2 11 -11
18 -16 13 -21 35 -7 26 11 -6 -22 149 -45 219 -16 49 -17 49 -24 21 -4 -16 -8
-65 -8 -110 -1 -44 -4 -130 -7 -191 -4 -68 -1 -144 6 -200 7 -49 13 -102 14
-117 0 -16 5 -28 9 -28 5 0 5 -5 2 -10 -4 -6 -15 -8 -25 -5 -12 4 -20 0 -24
-12 -3 -11 -4 -8 -3 7 1 14 -5 30 -13 37 -17 13 -18 49 -10 373 4 178 3 201
-17 265 -11 39 -24 83 -28 99 -10 47 -24 17 -30 -64 -4 -41 -9 -91 -11 -110
-7 -47 -7 -46 5 -195 15 -188 14 -235 -4 -235 -9 0 -18 -6 -21 -14 -8 -20 -50
-8 -51 15 -1 10 5 19 13 19 8 0 14 5 14 10 0 6 -5 10 -11 10 -8 0 -10 20 -6
68 7 81 -5 171 -23 182 -8 5 -26 6 -40 4 -24 -5 -27 -2 -49 64 -12 39 -29 79
-37 89 -14 16 -15 14 -10 -22 3 -22 8 -65 10 -95 11 -112 19 -156 34 -185 12
-23 15 -60 14 -155 -1 -69 2 -131 6 -138 6 -9 22 -7 70 10 53 20 64 28 73 56
14 42 26 41 31 -5 5 -42 -9 -73 -32 -73 -9 0 -21 -5 -28 -12 -7 -7 -12 -8 -12
-4 0 5 -7 3 -15 -4 -8 -7 -12 -16 -9 -21 3 -5 -3 -9 -13 -9 -10 0 -27 -7 -37
-15 -11 -8 -35 -15 -53 -15 -18 0 -33 -4 -33 -10 0 -5 6 -10 13 -10 7 0 21 -6
30 -13 16 -11 16 -15 -3 -56 -12 -23 -19 -45 -17 -48 6 -5 90 38 95 50 5 10
42 9 42 -2 0 -14 -28 -33 -40 -26 -5 3 -10 1 -10 -4 0 -25 67 -14 107 16 19
14 36 23 40 20 8 -9 -17 -38 -27 -32 -4 3 -10 -2 -14 -10 -3 -8 -1 -17 4 -20
5 -3 7 -14 5 -25 -3 -13 4 -21 22 -27 l25 -9 -39 -27 c-21 -15 -46 -27 -55
-27 -9 0 -20 -4 -23 -10 -9 -15 -42 -12 -59 6 -10 9 -24 13 -38 9 -68 -18 -98
-29 -98 -37 0 -4 -3 -7 -7 -6 -13 4 -104 -90 -92 -94 15 -5 -54 -78 -73 -78
-17 0 -49 57 -42 74 4 11 34 30 107 68 30 16 35 23 26 34 -6 8 -17 14 -23 14
-7 0 -22 13 -34 30 -27 36 -78 48 -134 29 -22 -7 -47 -23 -55 -36 -12 -18 -19
-21 -29 -12 -11 9 -18 8 -29 -1 -18 -15 -20 -40 -3 -40 6 0 4 -7 -5 -18 -25
-27 -21 -36 24 -56 47 -21 56 -38 41 -78 -10 -28 -10 -29 16 -26 16 2 26 8 24
16 -2 9 4 11 18 7 18 -6 19 -3 14 24 -8 41 9 40 29 -1 l16 -33 -37 -22 c-47
-29 -73 -29 -125 0 -48 26 -72 28 -71 7 1 -11 -9 -15 -38 -13 -32 1 -41 -3
-48 -20 -4 -12 -6 -25 -3 -29 2 -4 -3 -5 -11 -2 -9 3 -17 -3 -21 -16 -5 -17
-13 -21 -35 -18 -20 3 -27 1 -23 -9 4 -9 0 -11 -13 -6 -12 4 -15 3 -10 -6 5
-7 -3 -20 -18 -32 -17 -13 -26 -30 -26 -48 0 -15 -5 -32 -12 -39 -9 -9 -9 -12
1 -12 8 0 11 -6 7 -15 -3 -9 0 -15 9 -15 16 0 20 -16 6 -24 -4 -3 -22 0 -39 6
-25 10 -34 9 -56 -5 -30 -20 -37 -63 -8 -52 37 14 70 17 77 6 5 -9 10 -9 21 0
8 6 44 13 80 15 l66 3 -7 -39 c-6 -37 -5 -40 16 -38 21 3 23 0 20 -41 l-3 -44
41 7 c22 3 56 16 76 27 52 31 55 15 7 -32 -23 -23 -44 -50 -47 -60 -4 -10 -45
-44 -93 -76 -128 -85 -211 -150 -204 -159 4 -4 -1 -4 -11 -1 -11 4 -16 3 -12
-3 3 -6 1 -11 -4 -11 -39 -5 -62 -22 -52 -38 7 -10 24 -3 77 31 38 25 96 59
129 77 33 18 67 38 75 44 8 6 2 -4 -15 -22 -32 -37 -34 -36 37 -14 l22 6 -23
-32 c-13 -18 -41 -44 -63 -59 -22 -14 -44 -36 -49 -48 -11 -30 -42 -50 -131
-83 -40 -15 -105 -46 -145 -69 -39 -23 -76 -42 -82 -42 -23 0 -162 -71 -186
-94 -32 -32 -66 -49 -130 -66 -27 -7 -58 -21 -67 -31 -9 -11 -29 -26 -45 -34
-42 -22 -4 -19 59 5 47 18 50 18 32 3 -12 -10 -30 -24 -40 -31 -17 -11 -17
-12 6 -6 28 7 150 61 150 67 0 2 -24 3 -52 2 l-53 -2 40 13 c22 7 50 13 63 13
12 1 78 14 145 30 67 16 144 32 171 36 27 4 56 9 65 12 9 3 -3 -8 -27 -24 -23
-16 -66 -55 -95 -85 -28 -30 -65 -60 -82 -66 -42 -15 -141 -30 -275 -42 -63
-5 -116 -14 -118 -20 -2 -6 -7 -8 -12 -5 -7 5 -100 -13 -177 -34 -25 -7 -43
-18 -43 -26 0 -8 -15 -22 -32 -31 -18 -9 -36 -22 -40 -28 -9 -13 39 -28 65
-20 9 3 17 0 17 -6 0 -6 10 -8 23 -5 12 3 36 1 52 -5 l30 -10 -28 4 c-17 2
-25 0 -19 -6 4 -4 33 -11 62 -15 40 -5 51 -3 46 6 -12 18 77 13 149 -10 33
-10 71 -19 85 -21 14 -2 25 -9 25 -18 0 -8 16 -19 37 -25 54 -15 57 -25 7 -26
-78 -1 -134 -6 -159 -13 -19 -6 -21 -5 -10 3 12 9 10 11 -10 12 -41 3 -72 7
-116 14 -68 12 -60 -11 9 -25 34 -8 67 -19 72 -26 6 -6 28 -15 50 -19 l40 -8
-35 -8 c-19 -5 -60 -6 -90 -4 -30 2 -91 7 -135 10 -126 9 -144 14 -161 46 -14
28 -14 29 8 29 13 0 52 -9 86 -20 35 -11 78 -20 95 -19 19 0 -12 11 -75 27
-103 26 -159 52 -111 52 30 0 54 11 47 21 -3 5 -16 9 -30 9 -14 0 -27 7 -31
18 -4 9 -15 29 -26 44 -17 22 -19 38 -15 93 5 61 9 70 42 100 39 36 39 46 3
99 -16 22 -21 46 -21 110 -2 88 -8 106 -35 106 -46 0 -52 105 -10 189 20 43
21 49 9 135 -7 50 -21 113 -31 139 -23 58 -23 63 -4 47 12 -10 16 -10 19 1 2
8 9 29 15 48 6 19 11 45 11 59 0 43 14 14 20 -41 l6 -52 22 42 c18 35 22 58
22 141 0 66 -5 112 -15 135 -20 48 -19 67 3 40 10 -12 38 -27 67 -34 61 -15
59 -13 45 -39 -9 -18 -8 -25 6 -41 9 -10 20 -16 24 -14 4 3 18 -11 31 -30 13
-19 30 -35 37 -35 7 0 11 -4 8 -9 -4 -5 -1 -22 5 -38 9 -25 7 -31 -19 -53 -42
-36 -62 -71 -58 -105 3 -23 8 -29 22 -27 11 2 24 8 31 13 17 14 27 -9 12 -27
-9 -12 -9 -26 0 -68 14 -61 27 -77 92 -104 26 -11 50 -25 53 -31 4 -6 19 -3
40 10 l33 19 7 102 c7 94 5 104 -17 149 l-23 48 25 -2 c22 -2 26 3 29 28 2 23
-6 41 -34 73 -30 36 -34 45 -23 58 11 14 19 51 20 97 0 9 4 17 9 17 4 0 11 -8
15 -17 6 -17 7 -17 16 -1 12 21 -1 50 -31 71 -21 15 -50 64 -50 85 0 9 7 11
21 7 14 -5 19 -3 15 3 -3 6 -20 13 -36 17 -22 5 -32 14 -36 33 -3 15 -9 35
-15 45 -7 14 -5 17 11 17 28 0 25 25 -5 48 -19 15 -35 18 -70 14 -35 -4 -50 0
-66 14 -20 18 -21 26 -15 109 9 114 -10 174 -85 279 -70 97 -79 101 -73 28 3
-46 1 -41 -10 25 -7 46 -21 94 -30 108 -15 24 -22 25 -84 23 -80 -4 -86 7 -49
85 14 29 28 62 32 75 7 24 23 27 74 12 44 -12 81 -3 81 20 0 10 13 23 30 30
17 7 34 18 38 24 4 6 21 18 37 25 20 9 25 15 15 18 -44 13 -43 13 -26 32 13
15 14 20 4 24 -7 3 -4 6 8 6 36 2 84 22 84 37 0 8 4 14 10 14 5 0 19 10 30 22
20 21 20 23 4 35 -10 7 -13 13 -7 13 7 0 14 8 18 19 3 10 15 23 28 29 18 9 19
11 5 11 -24 1 -23 8 9 35 l27 23 -23 8 c-21 6 -22 8 -5 26 16 18 16 19 -14 19
-18 0 -32 5 -32 11 0 7 -22 33 -48 58 -45 44 -49 45 -46 21 2 -23 1 -23 -11
-7 -7 10 -16 56 -20 102 -6 71 -4 89 11 114 16 26 16 36 5 88 -28 126 -111
251 -200 301 -44 25 -49 23 -27 -11 18 -27 37 -107 25 -107 -4 0 -13 18 -19
40 -6 22 -22 52 -37 67 -14 16 -20 20 -13 10 7 -9 11 -20 8 -22 -3 -3 -11 6
-18 20 -17 31 -46 39 -111 31 -34 -5 -49 -4 -44 4 3 5 5 10 3 10 -2 0 -21 7
-43 15 -39 15 -37 15 60 9 55 -4 108 -11 118 -16 21 -11 21 -10 2 35 -15 36
-52 71 -86 82 -11 4 -17 10 -15 14 3 4 -3 7 -12 7 -9 1 -37 4 -62 7 -25 3 -56
2 -70 -3z m183 -473 c112 -49 163 -135 155 -263 -8 -117 -48 -159 -164 -171
-81 -9 -127 13 -215 103 -117 121 -141 121 -268 0 -89 -84 -131 -106 -202
-106 -47 0 -100 30 -124 70 -22 39 -35 204 -17 222 11 11 11 11 31 -132 8 -65
14 -79 41 -102 24 -23 40 -28 80 -28 71 0 94 12 179 94 87 84 107 96 153 96
45 -1 71 -17 117 -73 76 -92 121 -117 211 -117 104 0 154 59 155 181 0 67 -3
81 -30 125 -24 37 -44 56 -89 79 -58 29 -62 30 -170 25 -154 -7 -387 -3 -413
7 -12 4 103 8 255 7 236 0 283 -3 315 -17z m218 -151 c1 -12 1 -59 0 -106 -4
-183 -22 -250 -65 -250 -60 0 -71 22 -30 61 49 46 58 75 62 218 4 118 6 132
18 116 8 -10 15 -28 15 -39z m-1062 -229 c6 -15 25 -41 42 -58 30 -29 30 -31
13 -50 -9 -10 -23 -19 -30 -19 -16 0 -44 51 -44 79 0 11 -3 22 -7 24 -5 3 -6
58 -4 124 l5 118 7 -95 c4 -52 12 -107 18 -123z m1128 31 c-2 -18 -4 -4 -4 32
0 36 2 50 4 33 2 -18 2 -48 0 -65z m-522 -190 c19 -13 35 -27 35 -32 0 -5 -10
-1 -22 8 -13 9 -33 21 -45 26 -13 5 -23 12 -23 15 0 11 22 4 55 -17z m385 -27
c0 -30 6 -44 22 -55 12 -8 26 -12 32 -9 6 3 3 -3 -7 -13 -14 -15 -22 -17 -46
-7 -27 10 -31 8 -66 -33 -20 -24 -53 -52 -73 -62 -65 -32 -79 -19 -36 32 13
17 24 38 24 49 0 10 5 15 10 12 6 -3 10 -4 10 -1 0 2 -18 15 -40 27 -45 26
-40 33 29 44 24 4 59 18 79 31 50 34 62 31 62 -15z m-835 3 c8 -10 21 -40 30
-65 11 -32 33 -63 70 -98 52 -50 53 -51 29 -57 -37 -9 -99 22 -158 80 -32 31
-60 50 -75 50 -32 1 -44 41 -25 86 14 32 15 32 64 28 34 -4 55 -11 65 -24z
m395 -24 c11 -7 2 -10 -33 -10 -30 0 -46 4 -42 10 8 13 55 13 75 0z m2350
-240 c0 -5 -5 -10 -11 -10 -5 0 -7 5 -4 10 3 6 8 10 11 10 2 0 4 -4 4 -10z
m453 -360 c35 -13 38 -17 35 -50 -3 -30 -7 -35 -31 -38 -23 -3 -30 2 -42 32
-16 37 -20 80 -7 74 4 -2 24 -10 45 -18z m-73 -120 c0 -5 -7 -10 -15 -10 -8 0
-15 -4 -15 -8 0 -14 -71 -35 -81 -25 -6 6 10 18 43 31 62 24 68 25 68 12z
m-3066 -336 c-18 -102 -29 -133 -75 -214 -21 -37 -43 -89 -48 -117 -10 -53
-30 -103 -41 -103 -3 0 -1 34 7 75 10 61 21 87 58 141 47 70 75 144 75 203 0
39 20 102 30 96 4 -3 1 -39 -6 -81z m2501 -74 c-10 -11 -25 -20 -34 -20 -11 1
-8 8 13 26 32 29 48 24 21 -6z m-1777 -130 l0 -35 -19 40 c-19 41 -25 86 -11
99 10 10 30 -60 30 -104z m1818 89 c3 -6 -7 -25 -22 -42 -16 -17 -21 -25 -11
-18 9 8 20 11 24 8 10 -10 -57 -80 -111 -116 -28 -19 -74 -54 -103 -78 -48
-40 -60 -44 -59 -18 2 21 110 134 158 165 27 18 56 46 65 63 22 44 45 58 59
36z m-1750 -61 c6 -18 15 -42 19 -53 6 -16 1 -13 -23 9 -30 28 -40 55 -25 69
12 13 18 7 29 -25z m1334 -278 c0 -6 11 -8 28 -4 24 7 26 6 14 -9 -8 -9 -20
-13 -29 -10 -10 4 -14 2 -10 -4 4 -6 -5 -21 -20 -32 -16 -11 -33 -25 -40 -31
-16 -13 -26 -13 -18 1 4 5 0 18 -7 27 -32 37 -33 45 -2 39 16 -3 37 -9 47 -12
13 -6 17 -2 17 19 0 14 5 26 10 26 6 0 10 -5 10 -10z m-910 -156 c27 -42 20
-57 -7 -17 -31 44 -35 53 -24 53 5 0 19 -16 31 -36z m1020 -169 c0 -8 -6 -15
-13 -15 -22 0 -45 -32 -50 -70 -2 -19 -3 -13 -2 14 2 38 8 54 25 68 27 22 40
23 40 3z m-1916 -197 c23 -37 39 -133 26 -158 -9 -17 -4 -36 30 -110 46 -103
48 -125 19 -156 l-21 -23 21 -34 c11 -18 36 -42 55 -52 41 -22 64 -66 72 -139
6 -47 4 -56 -14 -71 -12 -11 -18 -25 -15 -34 5 -13 3 -14 -8 -3 -17 16 -78 15
-109 -3 -24 -14 -24 -14 25 -17 28 -1 62 -2 77 -1 28 1 38 -17 38 -68 0 -15 6
-38 13 -53 19 -35 22 -136 5 -136 -10 0 -10 -2 0 -9 7 -4 12 -14 10 -21 -2 -9
26 -29 72 -52 l75 -37 -60 6 c-33 3 -65 10 -72 15 -7 5 -21 7 -32 3 -15 -5
-21 0 -26 25 -4 19 -13 30 -23 30 -9 0 -24 5 -32 11 -11 7 -5 8 23 3 35 -6 37
-5 37 20 0 17 -5 26 -16 26 -8 0 -13 4 -9 9 3 6 -8 8 -27 5 -18 -3 -53 0 -78
7 -25 7 -70 13 -100 15 -30 2 -86 14 -123 26 l-68 23 2 60 c2 33 9 82 17 108
13 45 13 49 -4 62 -18 13 -18 17 4 120 19 95 25 109 57 139 32 31 35 38 29 72
-4 32 -1 46 20 76 14 21 21 40 16 43 -16 10 -12 43 10 84 10 21 17 41 14 44
-3 3 -1 22 5 44 6 21 15 57 21 81 12 47 23 52 44 20z m2036 -113 c0 -2 -22
-16 -50 -30 -27 -14 -50 -28 -50 -31 0 -3 28 -4 61 -1 59 6 61 5 43 -11 -32
-29 -72 -42 -128 -42 -65 0 -106 -14 -171 -57 -57 -38 -75 -40 -112 -15 -17
10 -55 19 -97 22 l-71 5 35 20 c19 10 145 47 280 81 261 67 260 67 260 59z
m-598 -55 c-12 -5 -36 -25 -53 -45 -33 -37 -73 -48 -67 -18 5 25 78 72 113 72
28 0 28 -1 7 -9z m-95 -245 c-7 -16 -37 -21 -37 -5 0 10 32 31 39 25 2 -2 1
-11 -2 -20z m-17 -55 c0 -6 -15 -19 -32 -30 -18 -10 -37 -23 -43 -27 -5 -5
-14 -10 -20 -12 -5 -2 -9 -7 -7 -12 1 -5 -10 -10 -25 -10 -16 -1 -21 -3 -11
-6 10 -2 15 -10 11 -19 -3 -7 -9 -12 -13 -9 -4 3 -10 -4 -13 -15 -3 -11 -10
-20 -16 -20 -23 0 11 91 45 122 44 39 124 64 124 38z m1079 -73 c-2 -2 -25
-23 -51 -46 l-47 -43 9 33 c11 39 8 35 50 47 43 13 44 13 39 9z m-109 -81 c0
-7 -11 -25 -24 -39 -13 -14 -22 -27 -21 -29 2 -2 -25 -4 -61 -5 -35 -1 -73 -5
-84 -8 -11 -4 -20 -2 -20 4 0 6 6 11 13 11 6 0 50 20 97 44 85 43 100 46 100
22z m-4137 -133 c-7 -2 -19 -2 -25 0 -7 3 -2 5 12 5 14 0 19 -2 13 -5z m123
-29 c18 -14 18 -15 -6 -8 -31 8 -50 24 -29 24 8 0 24 -7 35 -16z m1203 -35
c-6 -3 -9 -10 -8 -15 4 -21 -2 -24 -23 -13 -22 12 -92 14 -133 3 -11 -2 -2 5
20 17 46 24 137 40 147 25 4 -6 2 -13 -3 -17z m1736 -19 c2 -3 1 -10 -3 -15
-10 -14 -32 -17 -32 -5 0 6 -11 10 -24 10 -14 0 -28 5 -31 10 -4 6 11 10 40 8
25 0 48 -4 50 -8z m-1772 -26 c17 -10 16 -12 -7 -47 -14 -20 -23 -37 -19 -37
3 0 -3 -8 -14 -18 -24 -20 -13 -37 31 -48 37 -9 42 -24 9 -24 -44 0 -94 -17
-120 -42 l-23 -21 0 24 c0 27 17 55 68 112 18 22 31 41 29 44 -3 2 -25 -1 -48
-8 -24 -7 -51 -13 -59 -15 -8 -2 -27 -6 -42 -10 -23 -5 -26 -3 -21 14 3 14 16
23 41 27 21 3 62 15 92 25 l54 18 -84 -5 c-96 -6 -104 3 -14 15 74 10 104 9
127 -4z m-1127 -64 c8 0 14 -4 14 -10 0 -15 -24 -12 -46 6 -17 14 -17 15 -1
10 10 -3 25 -6 33 -6z m41 -12 c-3 -8 -6 -5 -6 6 -1 11 2 17 5 13 3 -3 4 -12
1 -19z m833 -18 c-14 -4 -34 -8 -45 -8 -16 0 -15 2 5 8 14 4 34 8 45 8 16 0
15 -2 -5 -8z m-79 -44 c-27 -29 -15 -40 29 -24 28 9 35 8 45 -5 7 -9 15 -14
18 -10 4 3 13 0 22 -7 11 -9 15 -9 15 -1 0 7 5 9 12 5 17 -11 -36 -31 -100
-40 -47 -6 -50 -5 -46 13 5 16 -1 21 -26 27 -18 3 -45 6 -60 6 -15 0 -33 7
-40 16 -8 8 -9 14 -4 13 18 -5 134 13 140 22 3 5 8 9 11 9 4 0 -4 -11 -16 -24z
m844 -50 c28 -9 64 -16 81 -16 37 0 42 -24 5 -27 -14 -1 -61 9 -104 24 -92 29
-110 26 -35 -7 35 -15 83 -26 140 -30 95 -7 130 -20 55 -20 -26 0 -47 -3 -47
-8 0 -7 -30 -25 -62 -38 -10 -3 -18 -12 -18 -18 0 -21 -63 -6 -87 20 -12 13
-29 24 -37 24 -8 0 -28 12 -45 26 -29 24 -31 30 -27 73 3 25 5 47 5 47 1 2
113 -30 176 -50z m670 -26 c28 -31 10 -36 -22 -6 -20 19 -23 26 -12 26 9 0 24
-9 34 -20z m-2410 -20 c3 -5 -3 -10 -14 -10 -12 0 -21 5 -21 10 0 6 6 10 14
10 8 0 18 -4 21 -10z m925 -50 c11 -7 2 -10 -32 -10 -26 0 -50 5 -53 10 -8 13
65 13 85 0z m185 -111 c4 -6 5 -13 2 -15 -10 -10 -63 -10 -82 -1 -19 10 -19
10 0 18 30 11 73 11 80 -2z m0 -59 c3 -5 2 -10 -4 -10 -5 0 -13 5 -16 10 -3 6
-2 10 4 10 5 0 13 -4 16 -10z m271 -255 l69 -25 -72 5 c-90 6 -108 12 -92 31
15 18 13 18 95 -11z"/>
<path d="M3257 1455 c-50 -14 -71 -25 -46 -25 26 1 144 39 119 38 -14 0 -47
-6 -73 -13z"/>
<path d="M3280 1303 c57 -25 264 -73 274 -63 19 19 -4 39 -51 45 -26 3 -89 12
-139 20 -112 18 -129 18 -84 -2z"/>
<path d="M3250 1240 c8 -5 26 -10 40 -10 20 0 22 2 10 10 -8 5 -26 10 -40 10
-20 0 -22 -2 -10 -10z"/>
<path d="M3378 1133 c7 -3 16 -2 19 1 4 3 -2 6 -13 5 -11 0 -14 -3 -6 -6z"/>
<path d="M4542 5249 c-12 -5 -22 -15 -22 -23 0 -21 54 -63 91 -71 29 -7 150
-65 134 -65 -4 0 -2 -6 4 -14 8 -9 26 -13 52 -10 26 2 38 0 33 -7 -3 -6 3 -5
14 2 16 10 19 20 15 48 -6 40 -14 52 -20 34 -8 -21 -20 -15 -25 12 -6 29 -2
30 32 10 14 -8 32 -14 40 -15 32 0 -19 33 -53 35 -19 1 -48 11 -63 22 -16 11
-63 25 -104 32 -41 7 -82 14 -90 15 -9 2 -26 -1 -38 -5z"/>
<path d="M5035 5149 c-16 -5 -46 -7 -66 -3 -38 6 -55 -10 -40 -35 5 -8 22 -6
64 8 86 30 120 54 42 30z"/>
<path d="M1108 5113 c7 -3 16 -2 19 1 4 3 -2 6 -13 5 -11 0 -14 -3 -6 -6z"/>
<path d="M1090 5090 c-18 -12 -2 -12 25 0 13 6 15 9 5 9 -8 0 -22 -4 -30 -9z"/>
<path d="M5920 5090 c0 -4 -23 -7 -52 -8 -49 -1 -73 -15 -61 -36 3 -5 1 -6 -5
-2 -6 4 -21 1 -33 -6 -33 -19 -99 -84 -99 -97 0 -6 -4 -11 -10 -11 -5 0 -10 7
-10 15 0 12 -4 13 -18 4 -10 -7 -19 -18 -19 -26 0 -12 9 -14 39 -9 21 3 38 4
38 1 0 -8 -65 -32 -106 -39 -60 -10 -71 -20 -49 -43 10 -10 20 -17 22 -15 8 6
34 1 29 -6 -3 -5 8 -8 24 -7 49 3 34 -12 -20 -19 -49 -7 -69 -19 -50 -31 14
-8 13 -25 -2 -25 -6 0 -8 3 -5 7 4 3 2 12 -4 19 -8 10 -21 9 -66 -7 -71 -24
-86 -37 -80 -67 3 -14 -1 -26 -9 -29 -12 -4 -21 -33 -10 -33 2 0 32 13 67 29
67 31 254 69 283 58 9 -4 16 -15 16 -26 0 -14 -5 -19 -15 -15 -8 4 -15 1 -15
-4 0 -6 14 -10 30 -10 22 1 29 5 26 15 -3 7 -1 13 4 13 6 0 10 -7 10 -15 0 -8
7 -15 15 -15 7 0 18 -7 23 -17 6 -10 16 -14 26 -10 27 11 18 -1 -14 -18 -16
-8 -40 -15 -54 -15 -13 0 -31 -7 -40 -15 -19 -19 -26 -19 -43 3 -8 9 -12 12
-9 6 4 -7 -10 -14 -35 -18 -22 -4 -51 -14 -65 -23 -24 -15 -24 -17 -7 -35 9
-11 25 -17 35 -15 11 3 18 0 18 -10 0 -10 -6 -12 -20 -8 -14 5 -20 2 -20 -9 0
-9 6 -16 13 -16 8 0 7 -4 -3 -10 -8 -5 -11 -10 -6 -10 4 0 24 14 43 31 33 28
36 29 53 14 10 -9 31 -20 46 -24 29 -8 31 -14 19 -61 -6 -25 -6 -24 19 4 14
17 23 33 21 37 -3 3 12 9 33 13 63 10 122 7 153 -9 16 -9 34 -13 39 -10 17 10
11 51 -10 78 -23 29 -25 38 -7 35 13 -3 63 -78 59 -90 -3 -12 15 -10 53 6 18
8 37 11 41 8 4 -4 4 -1 0 6 -4 7 -1 15 9 18 11 5 13 10 5 19 -9 11 -18 11 -52
-1 -53 -18 -58 -18 -58 5 0 11 9 22 19 26 11 3 23 14 26 24 8 25 97 72 115 61
16 -10 33 -3 25 10 -9 15 24 19 39 4 17 -16 23 -10 36 37 8 28 6 32 -35 58
-41 26 -42 28 -25 41 18 13 18 14 -2 43 -11 15 -35 36 -53 44 -36 17 -37 43
-1 43 17 0 18 2 6 10 -8 5 -12 10 -8 10 11 0 -46 60 -58 60 -6 0 -18 8 -27 18
-9 10 -32 24 -51 32 -19 7 -33 17 -30 22 3 4 -1 8 -9 8 -8 0 -20 6 -26 14 -12
14 -71 28 -71 16z m-227 -287 c-7 -2 -19 -2 -25 0 -7 3 -2 5 12 5 14 0 19 -2
13 -5z m67 -12 c0 -5 -6 -11 -13 -14 -8 -3 -14 1 -14 9 0 8 6 14 14 14 7 0 13
-4 13 -9z m-280 -77 c0 -8 -4 -12 -10 -9 -5 3 -10 13 -10 21 0 8 5 12 10 9 6
-3 10 -13 10 -21z m-30 -16 c0 -5 -4 -8 -10 -8 -5 0 -10 10 -10 23 0 18 2 19
10 7 5 -8 10 -18 10 -22z m60 22 c0 -5 -2 -10 -4 -10 -3 0 -8 5 -11 10 -3 6
-1 10 4 10 6 0 11 -4 11 -10z m-100 -31 c0 -6 -4 -7 -10 -4 -5 3 -10 11 -10
16 0 6 5 7 10 4 6 -3 10 -11 10 -16z m890 0 c0 -6 -4 -7 -10 -4 -5 3 -10 11
-10 16 0 6 5 7 10 4 6 -3 10 -11 10 -16z m-513 -125 c-3 -3 -12 -4 -19 -1 -8
3 -5 6 6 6 11 1 17 -2 13 -5z"/>
<path d="M5126 4931 c33 -31 100 -56 110 -40 6 10 -1 12 -28 10 -10 -1 -18 3
-18 8 0 6 -4 11 -10 11 -5 0 -19 9 -30 20 -11 11 -28 20 -37 20 -14 0 -11 -7
13 -29z"/>
<path d="M6285 4920 c-3 -5 -2 -10 4 -10 5 0 13 5 16 10 3 6 2 10 -4 10 -5 0
-13 -4 -16 -10z"/>
<path d="M6301 4901 c-12 -8 -12 -11 1 -25 14 -14 16 -13 14 9 0 14 -1 25 -1
25 0 0 -6 -4 -14 -9z"/>
<path d="M5136 4865 c-19 -15 -19 -15 2 -15 13 0 22 6 22 15 0 18 0 18 -24 0z"/>
<path d="M1710 4767 c0 -5 -13 -7 -30 -3 -18 3 -30 1 -30 -5 0 -6 5 -7 10 -4
17 10 24 -26 12 -57 -16 -43 -6 -58 37 -57 40 2 105 16 79 18 -9 0 -20 5 -23
11 -3 6 9 9 32 7 27 -1 37 2 35 11 -1 8 2 11 8 7 13 -8 42 14 35 25 -3 4 -21
11 -40 14 -19 4 -35 12 -35 18 0 6 -11 8 -25 6 -13 -3 -22 -2 -20 2 3 4 -6 10
-20 12 -14 3 -25 1 -25 -5z"/>
<path d="M1028 4723 c6 -2 18 -2 25 0 6 3 1 5 -13 5 -14 0 -19 -2 -12 -5z"/>
<path d="M4555 4705 c-16 -7 -49 -15 -73 -19 -24 -3 -55 -14 -70 -24 -15 -10
-39 -24 -54 -32 -21 -10 -28 -21 -28 -41 0 -15 5 -31 10 -34 6 -3 10 -15 10
-25 0 -29 55 -15 106 26 45 36 114 74 141 78 23 4 48 48 40 69 -7 20 -40 21
-82 2z"/>
<path d="M1397 4691 c9 -11 20 -18 25 -15 12 8 -11 34 -28 34 -11 0 -10 -4 3
-19z"/>
<path d="M894 4681 c-21 -9 -39 -39 -29 -49 3 -3 12 4 21 16 17 25 47 30 37 7
-4 -13 0 -15 21 -11 14 3 26 2 26 -2 0 -4 15 -8 34 -9 19 -1 47 -8 64 -17 24
-12 33 -13 46 -3 15 11 8 16 -55 41 -81 32 -134 40 -165 27z"/>
<path d="M976 4598 c3 -5 10 -6 15 -3 13 9 11 12 -6 12 -8 0 -12 -4 -9 -9z"/>
<path d="M1140 4589 c0 -5 5 -7 10 -4 6 3 10 8 10 11 0 2 -4 4 -10 4 -5 0 -10
-5 -10 -11z"/>
<path d="M1650 4586 c0 -12 11 -16 41 -16 52 0 48 24 -4 28 -28 2 -37 -1 -37
-12z"/>
<path d="M4430 4492 c0 -4 10 -13 23 -21 22 -14 22 -14 3 8 -20 22 -26 25 -26
13z"/>
<path d="M4320 4481 c0 -6 4 -13 10 -16 6 -3 7 1 4 9 -7 18 -14 21 -14 7z"/>
<path d="M481 4196 c-57 -16 -101 -64 -101 -111 0 -35 13 -54 25 -35 4 6 11 8
16 4 5 -3 7 -10 4 -15 -3 -5 -10 -28 -14 -51 -7 -32 -9 -36 -10 -15 -1 29 -10
34 -29 15 -17 -17 -15 -48 7 -84 17 -27 27 -33 68 -36 57 -6 91 6 56 19 -22 8
-22 8 3 20 23 11 29 9 49 -12 24 -26 45 -33 45 -14 0 7 10 9 25 7 14 -3 25 -2
25 2 0 4 9 10 19 13 11 2 21 15 23 28 3 22 4 22 21 5 33 -34 52 -17 55 49 2
53 -1 65 -30 110 -18 27 -52 64 -76 82 -48 37 -96 41 -181 19z"/>
<path d="M6330 4030 c-8 -5 -12 -11 -9 -14 2 -3 11 -1 19 4 8 5 12 11 9 14 -2
3 -11 1 -19 -4z"/>
<path d="M244 3946 c-11 -28 42 -146 66 -146 16 0 12 47 -4 53 -8 3 -18 23
-22 44 -9 45 -31 73 -40 49z"/>
<path d="M479 3807 c15 -19 5 -22 -33 -7 -14 5 -26 7 -26 5 0 -6 39 -22 77
-31 18 -5 24 -4 19 5 -4 6 -4 11 1 12 62 5 81 21 22 18 -25 -1 -52 1 -60 6
-12 8 -12 6 0 -8z"/>
<path d="M990 3697 c0 -26 5 -47 10 -47 6 0 8 16 4 43 -9 58 -14 59 -14 4z"/>
<path d="M1112 3710 c0 -14 2 -19 5 -12 2 6 2 18 0 25 -3 6 -5 1 -5 -13z"/>
<path d="M5425 3638 c6 -51 12 -173 15 -310 0 -10 5 -18 11 -18 8 0 10 49 5
173 -7 209 -7 205 -25 212 -11 5 -13 -5 -6 -57z"/>
<path d="M1099 3663 c0 -10 -2 -28 -5 -40 -2 -13 1 -23 6 -23 6 0 10 18 10 40
0 39 -9 58 -11 23z"/>
<path d="M1830 3620 c0 -12 40 -34 47 -26 9 8 -17 36 -33 36 -8 0 -14 -4 -14
-10z"/>
<path d="M4660 3602 c0 -13 -7 -25 -15 -28 -21 -8 -19 -24 3 -24 27 0 43 32
26 55 -13 18 -14 18 -14 -3z"/>
<path d="M1003 3602 c-12 -2 -27 -10 -33 -18 -10 -11 -9 -14 6 -14 14 0 15 -3
6 -12 -7 -7 -12 -26 -12 -42 l0 -31 20 25 c11 14 20 31 20 39 0 8 7 19 15 25
19 15 6 32 -22 28z"/>
<path d="M5227 3604 c-22 -23 9 -83 41 -78 6 1 17 2 22 3 6 0 10 10 10 21 0
18 -10 24 -31 22 -4 -1 -6 6 -5 16 1 17 -25 28 -37 16z"/>
<path d="M1104 3563 c2 -13 0 -26 -5 -29 -5 -3 -9 -10 -9 -17 0 -6 7 -4 17 5
14 14 14 21 4 40 l-12 23 5 -22z"/>
<path d="M1490 3524 c-6 -14 -10 -29 -10 -33 0 -19 75 -76 170 -126 58 -32
110 -62 115 -68 6 -7 19 -13 30 -14 69 -8 126 -21 139 -32 13 -11 16 -11 16 2
0 10 15 20 40 27 22 6 40 15 40 21 0 6 5 7 12 3 8 -5 9 -2 5 10 -4 10 -7 20
-7 22 0 2 -7 4 -15 4 -19 0 -19 4 2 43 9 18 17 36 18 40 0 4 6 12 14 17 11 6
4 10 -23 16 -27 5 -41 3 -46 -7 -7 -10 -12 -10 -23 -1 -7 7 -17 9 -20 5 -4 -3
-12 -1 -19 4 -7 6 -32 14 -55 18 -24 4 -43 11 -43 16 0 6 5 7 12 3 7 -5 8 -3
4 5 -6 9 -13 8 -27 -5 -18 -16 -20 -16 -38 0 -11 10 -24 15 -30 12 -5 -3 -11
-1 -13 5 -2 6 -22 11 -43 11 -22 0 -68 6 -103 14 -85 19 -91 18 -102 -12z"/>
<path d="M1162 3520 c0 -14 2 -19 5 -12 2 6 2 18 0 25 -3 6 -5 1 -5 -13z"/>
<path d="M1276 3444 c2 -67 -2 -89 -16 -107 -18 -22 -18 -23 1 -24 10 -1 19 1
20 5 0 4 2 14 5 22 8 33 20 96 18 105 -4 30 -17 76 -23 79 -3 2 -5 -34 -5 -80z"/>
<path d="M1191 3437 c-6 -35 -11 -76 -11 -90 0 -15 -3 -27 -7 -27 -5 0 -6 38
-4 85 2 55 -1 85 -7 85 -12 0 -21 -60 -37 -250 -2 -14 -7 -24 -13 -23 -5 1 -8
-7 -5 -17 4 -16 -1 -21 -25 -26 -22 -5 -29 -10 -25 -21 4 -11 1 -14 -8 -11
-11 4 -14 29 -14 119 0 63 4 139 8 169 7 49 7 53 -6 36 -9 -12 -20 -17 -31
-13 -12 5 -16 1 -16 -17 0 -14 -6 -26 -12 -29 -10 -3 -10 -7 0 -19 10 -13 10
-17 -3 -22 -8 -3 -15 -15 -15 -26 0 -12 -4 -19 -9 -16 -5 3 -11 -5 -13 -19 -3
-14 -1 -25 3 -25 5 0 9 -7 9 -15 0 -8 9 -19 20 -25 11 -6 20 -18 20 -27 0 -15
-2 -15 -18 0 -10 10 -24 17 -30 17 -7 0 -12 4 -12 10 0 18 -41 48 -61 43 -10
-3 -19 -9 -19 -13 0 -4 -9 -10 -20 -13 -11 -3 -20 -4 -20 -3 0 0 4 15 9 33 5
18 5 33 1 35 -5 2 -5 21 0 43 6 25 6 41 0 43 -6 2 -10 12 -10 23 0 31 -28 22
-39 -13 -6 -18 -18 -82 -26 -143 -22 -150 -24 -158 -44 -149 -9 3 -32 10 -51
14 -42 8 -80 27 -80 40 0 10 -16 6 -65 -15 -16 -8 -50 -16 -75 -20 -25 -3 -63
-11 -85 -17 -35 -9 -38 -11 -22 -23 9 -7 43 -20 75 -30 68 -21 68 -21 54 -38
-15 -18 67 -103 123 -127 48 -21 107 -68 100 -80 -3 -5 11 -14 32 -20 21 -6
56 -21 78 -35 42 -26 43 -31 1 -15 -31 11 -31 10 -10 -76 l17 -66 19 31 c40
63 45 43 36 -138 -10 -186 -6 -175 -61 -179 -42 -3 -47 0 -78 37 -37 47 -54
44 -44 -7 6 -34 4 -39 -51 -88 -58 -53 -58 -53 -62 -119 -3 -46 -1 -65 8 -65
6 0 10 -6 8 -12 -6 -17 57 -83 93 -98 22 -9 28 -17 24 -34 -24 -111 -30 -176
-15 -176 13 0 56 85 65 130 10 46 20 57 58 65 18 4 40 14 50 23 25 22 21 -3
-5 -28 l-22 -20 35 -37 c74 -79 108 -101 110 -70 0 6 7 -1 14 -18 8 -19 21
-30 35 -31 14 -1 19 3 16 13 -3 8 4 18 18 24 28 13 63 75 61 106 -3 25 -36 82
-65 108 -19 17 -21 17 -38 2 -29 -26 -35 -20 -13 12 23 32 27 46 10 35 -8 -5
-10 5 -7 32 6 48 -9 81 -58 124 -27 24 -32 31 -16 26 32 -10 28 14 -6 47 -27
26 -28 30 -21 90 4 34 10 106 14 159 7 106 13 112 54 52 13 -19 30 -33 36 -30
7 2 18 -6 25 -20 7 -13 24 -31 36 -39 l23 -15 -21 37 c-21 36 -21 37 -2 20 22
-18 34 -14 34 12 0 14 -2 14 -11 1 -9 -12 -10 -12 -5 3 3 10 6 26 7 35 0 9 7
-5 15 -33 7 -27 12 -56 9 -63 -3 -7 0 -10 5 -7 6 3 11 -1 11 -9 1 -9 2 -19 3
-23 2 -5 7 -26 13 -48 6 -22 14 -52 17 -68 6 -26 7 -27 31 -11 23 15 25 15 32
-2 4 -10 7 -60 7 -110 1 -87 2 -91 16 -68 11 19 21 23 38 19 27 -7 27 -9 -2
56 -27 62 -41 119 -29 119 4 0 25 -53 46 -118 31 -98 37 -131 37 -204 0 -49 4
-88 9 -88 4 0 12 44 18 98 l10 97 1 -177 c1 -97 6 -179 11 -182 13 -9 19 26
27 174 6 92 10 124 15 100 3 -19 7 -29 8 -22 1 16 28 16 34 0 3 -7 6 5 6 27 1
22 5 46 10 54 15 23 23 -5 18 -62 -2 -28 -2 -40 0 -24 2 15 6 27 9 27 2 0 34
-29 69 -63 58 -57 65 -68 65 -103 2 -130 25 -204 62 -204 10 0 18 -4 18 -10 0
-5 10 -10 23 -10 12 0 51 -7 87 -14 37 -8 98 -17 138 -21 63 -5 73 -4 79 11 5
13 -6 28 -40 57 -26 21 -47 44 -47 51 0 7 3 7 8 1 4 -6 32 -23 62 -39 30 -16
71 -42 91 -58 19 -16 51 -33 70 -38 l34 -9 -30 24 c-16 14 -36 25 -42 25 -7 0
-13 3 -13 8 0 4 -15 15 -32 25 -18 10 -53 35 -77 57 -40 36 -44 46 -17 41 21
-4 56 10 56 23 0 7 9 21 20 31 24 21 26 37 5 29 -8 -4 -15 -1 -15 5 0 6 -6 11
-14 11 -9 0 -12 7 -9 20 5 17 0 20 -28 22 -34 1 -63 4 -108 11 -24 4 -60 42
-61 65 0 6 8 12 18 12 11 0 -1 16 -36 46 -56 49 -116 128 -110 145 2 6 14 2
28 -9 31 -24 70 -37 70 -24 0 7 11 6 30 -1 17 -6 30 -15 30 -18 0 -4 14 -10
30 -14 34 -7 36 -12 16 -50 -14 -27 -14 -29 37 -71 55 -47 108 -67 160 -62 27
2 32 7 30 26 -3 22 -1 23 42 16 37 -5 45 -3 45 9 0 18 -16 30 -43 34 -36 6
-68 35 -62 57 2 11 2 15 -1 9 -9 -21 -23 -15 -17 7 4 15 0 20 -15 20 -11 0
-31 13 -45 29 -13 16 -35 31 -48 33 -13 1 -24 8 -25 13 -2 28 -26 63 -60 91
-22 17 -46 44 -54 60 -8 16 -27 41 -42 56 -16 15 -28 32 -28 39 0 6 -7 8 -16
5 -8 -3 -12 -2 -9 4 3 6 -1 10 -10 10 -8 0 -32 15 -51 33 -20 17 -53 41 -75
52 -90 47 -159 88 -175 106 -9 10 -17 33 -18 51 -2 29 -12 39 -72 80 -38 26
-107 62 -153 81 -83 32 -114 57 -71 57 12 0 18 5 15 10 -3 6 5 14 18 19 30 12
100 -5 167 -39 25 -12 42 -19 38 -15 -4 5 -3 14 3 22 9 10 7 13 -10 13 -30 0
-97 36 -105 55 -10 26 -8 28 24 21 19 -3 29 -2 25 4 -3 6 -1 10 4 10 6 0 11
-6 11 -13 0 -13 56 -67 71 -67 4 0 6 6 3 14 -3 8 -7 43 -8 78 -2 35 -4 69 -5
76 -2 22 -18 13 -31 -18 -7 -16 -20 -30 -29 -31 -10 0 -11 -2 -3 -6 21 -8 13
-25 -10 -21 -18 2 -24 11 -26 36 -2 18 -7 30 -12 27 -5 -3 -7 -12 -3 -20 3
-10 -2 -15 -16 -15 -12 0 -21 -5 -21 -10 0 -6 -6 -9 -12 -8 -7 2 -12 -3 -10
-9 2 -15 -14 -17 -23 -3 -3 6 -22 10 -41 10 -22 0 -34 5 -34 14 0 9 -7 12 -18
9 -13 -3 -18 2 -20 23 -2 28 -4 28 96 11 12 -2 22 0 22 4 0 5 11 4 25 -1 14
-5 25 -6 25 -1 0 5 6 9 13 8 36 -1 48 4 45 20 -2 11 6 22 20 28 56 25 7 74
-77 78 -22 0 -37 5 -35 9 3 5 -6 3 -19 -3 -17 -8 -31 -8 -42 -1 -16 8 -15 11
11 23 29 14 29 15 30 107 1 51 -2 94 -6 97 -4 3 -13 -24 -19 -58z m-16 -257
c3 -5 2 -10 -4 -10 -5 0 -13 5 -16 10 -3 6 -2 10 4 10 5 0 13 -4 16 -10z m-98
-42 c-3 -8 -6 -5 -6 6 -1 11 2 17 5 13 3 -3 4 -12 1 -19z m80 16 c-3 -3 -12
-4 -19 -1 -8 3 -5 6 6 6 11 1 17 -2 13 -5z m93 -138 c0 -3 -4 -8 -10 -11 -5
-3 -10 -1 -10 4 0 6 5 11 10 11 6 0 10 -2 10 -4z m-429 -190 c19 -8 45 -26 59
-40 l24 -27 -39 17 c-52 21 -114 64 -94 64 9 0 32 -6 50 -14z m399 -377 c0
-37 -1 -39 -16 -25 -8 9 -19 16 -24 16 -4 0 -11 7 -14 16 -6 15 -4 15 11 3 15
-12 16 -12 10 3 -5 15 4 25 26 27 4 1 7 -17 7 -40z m498 -45 c2 -14 1 -16 -6
-5 -6 7 -15 10 -21 7 -6 -4 -11 -2 -11 3 0 6 -3 10 -7 10 -17 -3 -24 1 -19 10
10 16 61 -4 64 -25z m37 -164 c3 -6 -1 -7 -9 -4 -18 7 -21 14 -7 14 6 0 13 -4
16 -10z m275 -115 c18 -19 31 -37 29 -40 -11 -10 -72 33 -76 53 -4 31 8 27 47
-13z m-1110 4 c0 -18 -13 -38 -21 -33 -15 9 -10 41 6 41 8 0 15 -4 15 -8z
m905 -89 c-3 -5 -12 -10 -18 -10 -7 0 -6 4 3 10 19 12 23 12 15 0z m-162 -36
c21 -23 25 -34 16 -39 -8 -5 -10 -4 -5 3 4 7 1 12 -9 12 -13 0 -15 -7 -11 -32
6 -31 5 -31 -5 -8 -8 20 -24 113 -16 99 1 -2 15 -18 30 -35z"/>
<path d="M5571 3486 c-9 -10 -10 -30 -5 -63 5 -26 8 -51 9 -55 0 -3 2 -9 5
-11 3 -3 5 28 6 69 0 41 -1 74 -2 74 -1 0 -7 -6 -13 -14z"/>
<path d="M5300 3475 c0 -8 5 -15 10 -15 6 0 10 7 10 15 0 8 -4 15 -10 15 -5 0
-10 -7 -10 -15z"/>
<path d="M2180 3415 c0 -8 -5 -15 -11 -15 -5 0 -7 -5 -4 -10 7 -11 63 -9 83 4
7 4 17 4 22 1 6 -3 10 -2 10 3 0 8 -65 32 -89 32 -6 0 -11 -7 -11 -15z"/>
<path d="M1780 3265 c0 -5 5 -17 10 -25 5 -8 10 -10 10 -5 0 6 -5 17 -10 25
-5 8 -10 11 -10 5z"/>
<path d="M1395 3224 c-20 -15 -12 -17 19 -5 11 4 15 10 10 13 -5 4 -18 0 -29
-8z"/>
<path d="M1923 3225 c0 -8 4 -12 9 -9 5 3 6 10 3 15 -9 13 -12 11 -12 -6z"/>
<path d="M4900 3062 c1 -17 19 -34 29 -28 17 11 13 23 -9 29 -11 3 -20 2 -20
-1z"/>
<path d="M4885 3021 c-3 -6 -10 -9 -15 -6 -5 3 -14 -4 -20 -15 -6 -11 -16 -20
-23 -19 -29 4 -39 -4 -13 -10 23 -5 35 0 59 22 16 15 27 30 24 33 -3 3 -8 0
-12 -5z"/>
<path d="M4810 3010 c0 -5 5 -10 10 -10 6 0 10 5 10 10 0 6 -4 10 -10 10 -5 0
-10 -4 -10 -10z"/>
<path d="M2076 2987 c3 -10 9 -15 12 -12 3 3 0 11 -7 18 -10 9 -11 8 -5 -6z"/>
<path d="M1610 2926 c0 -24 -3 -51 -6 -60 -4 -9 -1 -16 6 -16 18 0 59 -46 51
-57 -13 -19 -41 -22 -50 -5 -9 15 -10 15 -11 1 0 -13 12 -22 63 -47 4 -2 7 4
7 14 0 16 1 16 18 1 20 -18 52 -23 52 -8 0 5 -10 18 -23 28 -31 25 -63 76 -50
80 16 6 -7 73 -24 73 -7 0 -13 6 -13 14 0 8 -4 18 -10 21 -6 4 -10 -11 -10
-39z"/>
<path d="M1952 2950 c-7 -12 -10 -26 -6 -32 4 -6 3 -8 -3 -5 -6 4 -14 0 -17
-9 -9 -23 -7 -74 2 -74 5 0 8 -10 8 -22 -1 -14 4 -22 12 -20 8 1 12 -3 10 -10
-3 -7 4 -21 14 -32 15 -17 22 -18 53 -9 24 8 35 8 35 1 0 -6 6 -6 15 2 12 10
12 16 3 34 -7 11 -13 44 -14 71 -1 28 -3 57 -4 65 -4 22 -22 -69 -21 -108 0
-28 -3 -33 -22 -30 -19 3 -22 8 -19 41 4 38 -12 72 -29 61 -11 -7 -11 10 0 59
10 41 3 48 -17 17z"/>
<path d="M2095 2891 c-3 -6 0 -30 9 -54 8 -23 17 -51 20 -62 3 -11 2 9 -1 45
-5 66 -15 91 -28 71z"/>
<path d="M537 2863 c-6 -11 -9 -398 -3 -392 5 4 36 330 36 374 0 24 -23 35
-33 18z"/>
<path d="M1640 2725 c0 -2 18 -14 40 -25 22 -11 40 -18 40 -15 0 2 -18 14 -40
25 -22 11 -40 18 -40 15z"/>
<path d="M4856 2591 c-8 -12 4 -41 16 -41 6 0 8 7 4 15 -3 8 -1 15 4 15 6 0
10 5 10 10 0 12 -27 13 -34 1z"/>
<path d="M4690 2479 c0 -5 5 -7 10 -4 6 3 10 8 10 11 0 2 -4 4 -10 4 -5 0 -10
-5 -10 -11z"/>
<path d="M1870 2430 c0 -5 4 -10 9 -10 6 0 13 5 16 10 3 6 -1 10 -9 10 -9 0
-16 -4 -16 -10z"/>
<path d="M4580 2380 c-7 -17 -10 -33 -6 -37 3 -3 6 0 6 8 0 9 7 24 16 35 14
18 15 18 9 -6 -5 -21 -4 -22 5 -7 11 17 6 37 -9 37 -5 0 -14 -14 -21 -30z"/>
<path d="M4633 2354 c-6 -13 -7 -24 -2 -24 5 0 9 -6 9 -13 0 -8 7 -14 15 -14
10 0 12 4 6 10 -10 10 -3 38 12 48 5 3 0 8 -10 11 -13 3 -22 -2 -30 -18z"/>
<path d="M1994 2322 c2 -9 8 -28 12 -42 4 -14 7 -33 5 -42 -1 -10 2 -18 8 -18
6 0 8 8 4 18 -6 16 -5 16 14 0 11 -10 27 -18 36 -18 9 0 19 -4 22 -10 3 -5 15
-10 26 -10 20 0 20 1 -4 30 -16 19 -23 37 -20 50 5 17 1 20 -26 20 -17 0 -31
3 -31 8 0 4 -12 12 -26 19 -22 10 -24 9 -20 -5z"/>
<path d="M4716 2323 c-6 -14 -5 -15 5 -6 7 7 10 15 7 18 -3 3 -9 -2 -12 -12z"/>
<path d="M4740 2327 c0 -9 4 -18 9 -21 5 -4 8 1 7 9 -3 21 -16 31 -16 12z"/>
<path d="M6161 2284 c0 -11 3 -14 6 -6 3 7 2 16 -1 19 -3 4 -6 -2 -5 -13z"/>
<path d="M4407 2234 c5 -14 3 -15 -15 -5 -30 16 -70 6 -105 -26 -20 -19 -31
-24 -34 -15 -7 19 -23 14 -23 -8 0 -18 -3 -19 -20 -10 -12 6 -35 10 -53 8
l-32 -4 40 -19 c22 -10 48 -18 57 -17 9 0 19 -6 22 -13 3 -8 23 -19 46 -25 30
-8 40 -16 38 -28 -2 -10 3 -16 11 -14 8 2 11 -3 8 -12 -5 -13 -3 -14 13 -3 21
13 26 27 10 27 -24 0 -7 28 20 34 44 8 45 8 48 -8 2 -11 -4 -16 -22 -16 -14 0
-26 -4 -26 -10 0 -5 3 -9 8 -9 22 4 32 -3 32 -21 0 -24 11 -25 50 -5 29 15 70
75 52 75 -24 0 -7 54 26 86 37 36 30 43 -28 22 -26 -9 -35 -9 -38 0 -2 7 -8
10 -13 7 -5 -4 -6 1 -3 9 7 19 0 20 -26 6 -13 -7 -21 -7 -25 0 -10 16 -25 11
-18 -6z"/>
<path d="M6190 2190 c0 -5 4 -10 9 -10 6 0 13 5 16 10 3 6 -1 10 -9 10 -9 0
-16 -4 -16 -10z"/>
<path d="M2190 2150 c0 -5 5 -10 10 -10 6 0 10 5 10 10 0 6 -4 10 -10 10 -5 0
-10 -4 -10 -10z"/>
<path d="M2220 2120 c0 -5 5 -10 10 -10 6 0 10 5 10 10 0 6 -4 10 -10 10 -5 0
-10 -4 -10 -10z"/>
<path d="M2244 2091 c3 -5 15 -7 26 -4 28 7 25 13 -6 13 -14 0 -23 -4 -20 -9z"/>
<path d="M2270 2030 c0 -5 5 -10 10 -10 6 0 10 5 10 10 0 6 -4 10 -10 10 -5 0
-10 -4 -10 -10z"/>
<path d="M2443 2020 c-7 -16 -7 -27 -1 -31 6 -4 5 -8 -3 -11 -8 -3 -10 -10 -4
-24 4 -10 8 -22 7 -25 -1 -4 10 -6 24 -6 20 0 23 2 13 9 -11 7 -11 11 -1 15 6
2 9 10 5 16 -5 7 -13 28 -19 47 l-11 35 -10 -25z"/>
<path d="M2260 1971 c0 -10 7 -22 16 -25 22 -8 27 -2 19 23 -8 26 -35 28 -35
2z"/>
<path d="M2255 1887 c27 -31 32 -44 24 -58 -7 -15 0 -28 39 -69 52 -55 91 -71
163 -69 50 2 70 -5 65 -24 -1 -7 -1 -9 1 -4 3 4 9 7 14 7 6 0 7 -4 4 -10 -3
-6 1 -7 9 -4 19 7 21 40 4 47 -10 4 -10 6 -1 6 6 1 15 -3 18 -9 7 -12 25 -13
25 -2 0 10 -38 33 -62 37 -11 3 -28 13 -37 24 -13 14 -21 17 -34 9 -10 -5 -32
-6 -50 -2 -18 4 -38 9 -45 10 -24 4 -26 14 -8 27 16 12 16 14 2 26 -9 7 -13
18 -9 24 3 5 1 7 -5 3 -6 -3 -17 1 -25 9 -19 18 -31 20 -22 3 4 -7 -3 -1 -15
15 -12 15 -26 25 -31 21 -5 -3 -9 -1 -9 4 0 5 -11 12 -25 14 -23 5 -23 4 10
-35z"/>
<path d="M2355 1910 c3 -5 11 -10 16 -10 6 0 7 5 4 10 -3 6 -11 10 -16 10 -6
0 -7 -4 -4 -10z"/>
<path d="M2400 1846 c0 -2 7 -6 15 -10 8 -3 15 -1 15 4 0 6 -7 10 -15 10 -8 0
-15 -2 -15 -4z"/>
<path d="M2732 1838 c2 -6 10 -14 16 -16 7 -2 10 2 6 12 -7 18 -28 22 -22 4z"/>
<path d="M4505 1819 c-16 -5 -43 -7 -60 -4 -22 4 -25 3 -10 -3 17 -8 17 -9 -9
-16 -16 -4 -26 -9 -24 -11 6 -6 115 22 137 35 20 12 6 11 -34 -1z"/>
<path d="M466 1785 c-3 -8 -1 -15 4 -15 13 0 22 18 11 24 -5 3 -11 -1 -15 -9z"/>
<path d="M3911 1778 c14 -26 28 -30 21 -6 -4 17 -2 20 12 15 10 -4 20 -7 22
-7 2 0 4 -8 4 -17 0 -13 3 -14 11 -6 23 23 2 44 -40 41 -33 -3 -38 -6 -30 -20z"/>
<path d="M512 1750 c0 -14 2 -19 5 -12 2 6 2 18 0 25 -3 6 -5 1 -5 -13z"/>
<path d="M899 1723 c-7 -18 -6 -30 1 -37 7 -7 10 -5 10 8 0 9 3 15 8 13 8 -6
26 13 30 31 5 25 -39 12 -49 -15z"/>
<path d="M4434 1740 c-34 -13 -36 -27 -4 -22 31 4 65 33 39 31 -8 0 -24 -4
-35 -9z"/>
<path d="M6240 1723 c0 -5 5 -15 10 -23 8 -12 10 -11 10 8 0 12 -4 22 -10 22
-5 0 -10 -3 -10 -7z"/>
<path d="M1120 1699 c0 -5 -4 -7 -10 -4 -5 3 -10 -3 -10 -14 0 -14 6 -21 18
-21 25 0 31 7 25 31 -6 20 -23 27 -23 8z"/>
<path d="M2788 1553 c7 -3 16 -2 19 1 4 3 -2 6 -13 5 -11 0 -14 -3 -6 -6z"/>
<path d="M877 1334 c-13 -13 -7 -24 14 -24 11 0 19 5 17 12 -5 14 -22 21 -31
12z"/>
<path d="M590 1164 c-8 -2 -32 -5 -52 -9 -41 -6 -60 -30 -51 -63 4 -17 13 -22
39 -22 26 0 95 26 122 46 2 1 -1 11 -7 22 -11 21 -28 30 -51 26z"/>
<path d="M5310 1130 c-8 -11 -17 -17 -22 -14 -4 3 -8 1 -8 -5 0 -6 9 -15 20
-21 16 -9 18 -8 14 5 -5 11 -2 13 10 9 9 -3 16 -10 16 -15 0 -14 17 -11 17 4
0 6 2 18 4 25 2 8 -5 18 -17 22 -15 6 -24 3 -34 -10z"/>
<path d="M5311 1014 c0 -11 3 -14 6 -6 3 7 2 16 -1 19 -3 4 -6 -2 -5 -13z"/>
<path d="M5281 954 c0 -11 3 -14 6 -6 3 7 2 16 -1 19 -3 4 -6 -2 -5 -13z"/>
<path d="M2325 631 l-40 -6 31 -11 c26 -10 34 -9 55 7 25 20 22 20 -46 10z"/>
<path d="M3337 323 c-13 -12 -7 -54 9 -60 25 -10 39 12 26 42 -12 25 -23 31
-35 18z"/>
</g>
</svg>
